<svg width="30" height="30" viewBox="0 0 30 30" fill="none" xmlns="http://www.w3.org/2000/svg">
<g clip-path="url(#clip0_916_15502)">
<path fill-rule="evenodd" clip-rule="evenodd" d="M14.773 11.9441C13.2008 11.9441 11.9262 13.2187 11.9262 14.791C11.9262 16.3632 13.2008 17.6378 14.773 17.6378C16.3453 17.6378 17.6199 16.3632 17.6199 14.791C17.6199 13.2187 16.3453 11.9441 14.773 11.9441ZM13.3496 14.791C13.3496 14.0048 13.9869 13.3676 14.773 13.3676C15.5592 13.3676 16.1965 14.0048 16.1965 14.791C16.1965 15.5771 15.5592 16.2144 14.773 16.2144C13.9869 16.2144 13.3496 15.5771 13.3496 14.791Z" fill="#324552"/>
<path fill-rule="evenodd" clip-rule="evenodd" d="M13.479 6.96216C13.1351 6.96216 12.8403 7.20814 12.7788 7.54655L12.5946 8.55969C12.3592 8.64199 12.1298 8.73723 11.9075 8.84455L11.0606 8.25824C10.7778 8.06246 10.3955 8.09693 10.1523 8.34015L8.32223 10.1702C8.07901 10.4134 8.04454 10.7957 8.24032 11.0785L8.82662 11.9254C8.7193 12.1478 8.62405 12.3771 8.54175 12.6125L7.52861 12.7967C7.1902 12.8583 6.94421 13.153 6.94421 13.497V16.085C6.94421 16.429 7.1902 16.7237 7.52861 16.7852L8.54175 16.9694C8.62405 17.2049 8.7193 17.4342 8.82662 17.6565L8.24032 18.5034C8.04453 18.7862 8.07901 19.1686 8.32223 19.4118L10.1522 21.2418C10.3955 21.485 10.7778 21.5195 11.0606 21.3237L11.9075 20.7374C12.1298 20.8447 12.3591 20.94 12.5946 21.0223L12.7788 22.0354C12.8403 22.3738 13.1351 22.6198 13.479 22.6198H16.0671C16.411 22.6198 16.7058 22.3738 16.7673 22.0354L16.9515 21.0223C17.1869 20.94 17.4163 20.8447 17.6386 20.7374L18.4855 21.3237C18.7683 21.5195 19.1506 21.485 19.3939 21.2418L21.2239 19.4118C21.4671 19.1686 21.5016 18.7862 21.3058 18.5034L20.7195 17.6565C20.8268 17.4342 20.922 17.2049 21.0043 16.9694L22.0175 16.7852C22.3559 16.7237 22.6019 16.429 22.6019 16.085V13.497C22.6019 13.153 22.3559 12.8583 22.0175 12.7967L21.0043 12.6125C20.922 12.3771 20.8268 12.1478 20.7195 11.9254L21.3058 11.0785C21.5016 10.7957 21.4671 10.4134 21.2239 10.1702L19.3938 8.34016C19.1506 8.09694 18.7683 8.06247 18.4855 8.25825L17.6386 8.84456C17.4162 8.73724 17.1869 8.642 16.9515 8.55969L16.7673 7.54655C16.7058 7.20814 16.411 6.96216 16.0671 6.96216H13.479ZM13.918 9.2381L14.073 8.38558H15.4731L15.6281 9.2381C15.6771 9.50765 15.8765 9.72514 16.1408 9.79734C16.5631 9.91272 16.9641 10.0803 17.3363 10.293C17.5743 10.4289 17.8692 10.4162 18.0945 10.2602L18.8073 9.76668L19.7974 10.7567L19.3038 11.4695C19.1478 11.6949 19.1351 11.9897 19.271 12.2277C19.4837 12.5999 19.6513 13.0009 19.7667 13.4233C19.8389 13.6875 20.0564 13.8869 20.3259 13.9359L21.1784 14.0909V15.491L20.3259 15.646C20.0564 15.695 19.8389 15.8944 19.7667 16.1587C19.6513 16.5811 19.4837 16.982 19.271 17.3543C19.1351 17.5922 19.1478 17.8871 19.3038 18.1124L19.7974 18.8253L18.8073 19.8153L18.0945 19.3218C17.8692 19.1658 17.5743 19.153 17.3363 19.2889C16.9641 19.5016 16.5631 19.6692 16.1408 19.7846C15.8765 19.8568 15.6771 20.0743 15.6281 20.3439L15.4731 21.1964H14.073L13.918 20.3439C13.869 20.0743 13.6696 19.8568 13.4053 19.7846C12.9829 19.6692 12.582 19.5016 12.2097 19.289C11.9718 19.153 11.6769 19.1658 11.4516 19.3218L10.7388 19.8153L9.74874 18.8253L10.2422 18.1124C10.3982 17.8871 10.411 17.5922 10.2751 17.3543C10.0624 16.982 9.89477 16.5811 9.77939 16.1587C9.7072 15.8944 9.48971 15.695 9.22015 15.646L8.36764 15.491V14.0909L9.22015 13.9359C9.48971 13.8869 9.7072 13.6875 9.77939 13.4233C9.89477 13.0009 10.0624 12.5999 10.2751 12.2277C10.411 11.9897 10.3982 11.6948 10.2423 11.4695L9.74875 10.7567L10.7388 9.76667L11.4516 10.2602C11.6769 10.4162 11.9718 10.4289 12.2098 10.293C12.582 10.0803 12.983 9.91272 13.4053 9.79734C13.6696 9.72514 13.869 9.50765 13.918 9.2381Z" fill="#324552"/>
</g>
<defs>
<clipPath id="clip0_916_15502">
<rect width="17.0811" height="17.0811" fill="white" transform="translate(6.23206 6.25049)"/>
</clipPath>
</defs>
</svg>
